# xmcd
#
# Track frame offsets:
#	150
#	19938
#	37488
#	56227
#	86091
#	105659
#	122603
#	143617
#	167650
#	189452
#	206486
#	224558
#	258523
#
# Disc length: 3839 seconds
#
# Revision: 1
# Processed by: cddbd v1.5.2PL0 Copyright (c) Steve Scherf et al.
# Submitted via: audiograbber 1.83.01
#
DISCID=c50efd0d
DTITLE=Mark Knopfler - Kill to get crimson
DYEAR=2006
DGENRE=
TTITLE0=True love will never fade
TTITLE1=The Scaffolder's wife
TTITLE2=The fizzy and the still
TTITLE3=Heart full of holes
TTITLE4=We can get wild
TTITLE5=Secondary waltz
TTITLE6=Punish the monkey
TTITLE7=Let it all go
TTITLE8=Behind with the rent
TTITLE9=The fish and the bird
TTITLE10=Madame Geneva's
TTITLE11=In the sky
TTITLE12=Boom like that (Live in Denver)
EXTD=
EXTT0=
EXTT1=
EXTT2=
EXTT3=
EXTT4=
EXTT5=
EXTT6=
EXTT7=
EXTT8=
EXTT9=
EXTT10=
EXTT11=
EXTT12=
PLAYORDER=
